<svg width="80" height="81" viewBox="0 0 80 81" fill="none" xmlns="http://www.w3.org/2000/svg">
<path d="M73.3334 24.2858C73.3334 15.0811 65.8714 7.61914 56.6668 7.61914H40.0001H23.3334C14.1287 7.61914 6.66675 15.0811 6.66675 24.2858V57.6191C6.66675 66.8238 14.1287 74.2858 23.3334 74.2858H56.6668C65.8714 74.2858 73.3334 66.8238 73.3334 57.6191V24.2858Z" stroke="#C4FD38" stroke-width="3" stroke-linecap="round" stroke-linejoin="round"/>
<path d="M51.9791 46.9508C53.2708 44.4615 53.7448 41.6281 53.3334 38.8541C52.9138 36.0245 51.5951 33.4046 49.5721 31.3818C47.5494 29.359 44.9298 28.0404 42.1001 27.6208C39.3258 27.2094 36.4924 27.6833 34.0031 28.9749C31.5139 30.2666 29.4952 32.3103 28.2343 34.8155C26.9735 37.3205 26.5346 40.1591 26.9802 42.9281C27.4257 45.6971 28.733 48.2548 30.7161 50.2381C32.6991 52.2211 35.2571 53.5285 38.0257 53.9738C40.7947 54.4195 43.6338 53.9805 46.1388 52.7198C48.6438 51.4588 50.6874 49.4401 51.9791 46.9508Z" stroke="#C4FD38" stroke-width="3" stroke-linecap="round" stroke-linejoin="round"/>
<path d="M58.3333 22.6191H58.3666" stroke="#C4FD38" stroke-width="3" stroke-linecap="round" stroke-linejoin="round"/>
</svg>
