<svg width="80" height="81" viewBox="0 0 80 81" fill="none" xmlns="http://www.w3.org/2000/svg">
<path d="M66.1999 16.0535C69.9402 14.9272 73.4746 13.205 76.6666 10.9535C75.5359 15.5958 73.1352 19.8318 69.7332 23.1868C69.9076 24.0988 69.9969 25.025 69.9999 25.9535C69.9999 64.2866 33.3332 80.9533 3.33325 64.2866C11.6238 64.6166 19.8017 62.2799 26.6666 57.6199C-3.33341 44.2866 9.99992 14.2868 9.99992 14.2868C13.3677 19.0822 17.869 22.9704 23.1033 25.6049C28.3375 28.2395 34.1419 29.5387 39.9999 29.3868V26.0535C39.9589 22.9946 40.8582 19.9969 42.5766 17.4658C44.2946 14.9348 46.7489 12.9925 49.6069 11.9016C52.4649 10.8108 55.5889 10.624 58.5566 11.3665C61.5242 12.1091 64.1922 13.7452 66.1999 16.0535Z" stroke="#C4FD38" stroke-width="3" stroke-linecap="round" stroke-linejoin="round"/>
</svg>
